HIERARCHY
ROOT Hips
{
	OFFSET 0.000000 0.000000 0.000000
	CHANNELS 6 Xposition Yposition Zposition Yrotation Xrotation Zrotation
	JOINT Chest
	{
		OFFSET 0.000000 -0.009281 11.569106
		CHANNELS 3 Yrotation Xrotation Zrotation
		JOINT Chest2
		{
			OFFSET -0.000000 0.016865 9.269641
			CHANNELS 3 Yrotation Xrotation Zrotation
			JOINT Chest3
			{
				OFFSET -0.000000 0.000001 8.374491
				CHANNELS 3 Yrotation Xrotation Zrotation
				JOINT Chest4
				{
					OFFSET -0.000000 0.000001 8.374493
					CHANNELS 3 Yrotation Xrotation Zrotation
					JOINT Neck
					{
						OFFSET -0.000000 0.000002 12.152554
						CHANNELS 3 Yrotation Xrotation Zrotation
						JOINT Head
						{
							OFFSET -0.000000 0.040101 7.802319
							CHANNELS 3 Yrotation Xrotation Zrotation
							End Site
							{
								OFFSET -0.000000 0.020947 14.853096
							}
						}
					}
					JOINT RightCollar
					{
						OFFSET 2.894404 0.000001 6.791374
						CHANNELS 3 Yrotation Xrotation Zrotation
						JOINT RightShoulder
						{
							OFFSET 13.574684 0.000001 0.000000
							CHANNELS 3 Yrotation Xrotation Zrotation
							JOINT RightElbow
							{
								OFFSET 23.923903 0.000002 0.000000
								CHANNELS 3 Yrotation Xrotation Zrotation
								JOINT RightWrist
								{
									OFFSET 19.846718 0.012767 0.000000
									CHANNELS 3 Yrotation Xrotation Zrotation
									End Site
									{
										OFFSET 14.973145 0.000001 0.000000
									}
								}
							}
						}
					}
					JOINT LeftCollar
					{
						OFFSET -2.894404 0.000001 6.791374
						CHANNELS 3 Yrotation Xrotation Zrotation
						JOINT LeftShoulder
						{
							OFFSET -13.574684 -0.000001 0.000000
							CHANNELS 3 Yrotation Xrotation Zrotation
							JOINT LeftElbow
							{
								OFFSET -23.923903 -0.000002 0.000000
								CHANNELS 3 Yrotation Xrotation Zrotation
								JOINT LeftWrist
								{
									OFFSET -19.846718 0.012763 0.000000
									CHANNELS 3 Yrotation Xrotation Zrotation
									End Site
									{
										OFFSET -14.973145 -0.000001 0.000000
									}
								}
							}
						}
					}
				}
			}
		}
	}
	JOINT RightHip
	{
		OFFSET 9.469263 0.004643 0.045487
		CHANNELS 3 Yrotation Xrotation Zrotation
		JOINT RightKnee
		{
			OFFSET 0.000000 0.002661 -40.478676
			CHANNELS 3 Yrotation Xrotation Zrotation
			JOINT RightAnkle
			{
				OFFSET 0.000000 0.049106 -35.224068
				CHANNELS 3 Yrotation Xrotation Zrotation
				JOINT RightToe
				{
					OFFSET -0.000001 12.539529 -6.151390
					CHANNELS 3 Yrotation Xrotation Zrotation
					End Site
					{
						OFFSET -0.000001 5.044994 -1.291870
					}
				}
			}
		}
	}
	JOINT LeftHip
	{
		OFFSET -9.469263 0.004641 0.045487
		CHANNELS 3 Yrotation Xrotation Zrotation
		JOINT LeftKnee
		{
			OFFSET 0.000000 0.002661 -40.478676
			CHANNELS 3 Yrotation Xrotation Zrotation
			JOINT LeftAnkle
			{
				OFFSET 0.000000 0.049106 -35.224068
				CHANNELS 3 Yrotation Xrotation Zrotation
				JOINT LeftToe
				{
					OFFSET -0.000001 12.539529 -6.151390
					CHANNELS 3 Yrotation Xrotation Zrotation
					End Site
					{
						OFFSET -0.000001 5.044994 -1.291870
					}
				}
			}
		}
	}
}
MOTION
Frames: 8
Frame Time: 0.016667
9.880494 6.987315 83.113480 -5.630458 -1.348819 -103.759009 -0.543130 -2.669132 1.669597 -0.223297 -1.187751 0.721483 -0.223297 -1.187751 0.721484 -0.166064 -0.891078 0.540659 1.418957 -20.309267 -5.389943 0.958332 -1.591892 -9.384799 9.546682 2.222723 -5.915442 66.025192 45.343013 32.205121 42.631520 43.078939 47.126144 -15.835269 50.222620 10.258798 -8.865285 -4.478840 -5.061238 -51.518280 26.662943 -20.741218 -25.999866 8.527484 -30.088459 -33.614243 23.077876 3.009269 -0.847899 -6.405790 -3.329829 2.275447 -4.047620 -10.870638 -1.077445 4.280725 1.481190 0.085149 0.045068 0.018475 -0.626156 -6.983938 0.281433 0.561667 -2.171792 -1.217622 -0.626496 3.575152 0.219606 0.025039 -0.029494 -0.014385 
9.876483 7.009220 83.113792 -5.651323 -1.352426 -103.774165 -0.536258 -2.675643 1.678348 -0.222175 -1.189850 0.723429 -0.222175 -1.189850 0.723430 -0.165217 -0.892652 0.542120 1.413443 -20.318213 -5.623411 0.879169 -1.618411 -9.811305 9.551584 2.161395 -5.929636 66.294540 45.480618 32.441469 42.668602 42.949377 47.103378 -16.425154 50.229754 10.050698 -8.911604 -4.519117 -5.069759 -51.496522 26.791832 -20.787747 -26.334153 8.838151 -30.126411 -33.478049 23.367243 2.960433 -0.877004 -6.320383 -3.238327 2.295020 -4.248700 -10.933697 -1.079926 4.359332 1.471982 0.089230 0.050427 0.015346 -0.634695 -6.997193 0.326660 0.545540 -2.178383 -1.191873 -0.624684 3.565352 0.167522 0.032710 -0.024770 -0.010447 
9.868690 7.027966 83.113968 -5.645416 -1.350407 -103.818944 -0.529122 -2.686242 1.674788 -0.220281 -1.194059 0.719284 -0.220281 -1.194059 0.719285 -0.163799 -0.895805 0.539013 1.395879 -20.299749 -5.793714 0.795233 -1.592798 -10.127177 9.554217 2.141367 -5.936370 66.266174 45.314911 32.435055 42.835941 42.460653 47.335113 -16.919412 50.151176 9.853420 -8.929404 -4.506978 -5.124380 -51.529833 26.952224 -20.777372 -26.658886 9.545025 -30.580427 -33.296489 23.578771 2.796135 -0.911729 -6.203305 -3.150513 2.321174 -4.446404 -10.953875 -1.085108 4.429844 1.462457 0.088116 0.055392 0.012130 -0.638071 -6.997658 0.412831 0.521332 -2.157176 -1.163584 -0.629827 3.544567 0.100908 0.044463 -0.022444 -0.006319 
9.858820 7.039917 83.114655 -5.614947 -1.344671 -103.893311 -0.526980 -2.706080 1.675264 -0.220894 -1.202665 0.717259 -0.220894 -1.202665 0.717259 -0.164254 -0.902259 0.537491 1.381253 -20.252745 -5.924650 0.726376 -1.512668 -10.371348 9.542576 2.167730 -5.970705 66.009332 44.816419 32.223197 43.331126 41.834133 47.992799 -17.083466 50.082311 9.796922 -8.916032 -4.432684 -5.235336 -51.578139 27.303831 -20.757146 -26.936999 10.231815 -31.204317 -33.100879 24.058035 2.307090 -0.938733 -6.086206 -3.096094 2.343471 -4.584547 -10.901054 -1.099548 4.467228 1.432004 0.082172 0.058384 0.009617 -0.638735 -6.982114 0.509240 0.500750 -2.123135 -1.124031 -0.647948 3.519201 0.042278 0.058349 -0.019857 -0.001651 
9.851691 7.040111 83.116447 -5.569311 -1.343023 -103.994418 -0.526426 -2.735361 1.683428 -0.221928 -1.215164 0.720121 -0.221928 -1.215164 0.720123 -0.165008 -0.911636 0.539629 1.369684 -20.183426 -6.028474 0.669463 -1.389918 -10.565999 9.533297 2.210862 -5.977935 65.694392 44.197526 31.998470 43.948070 41.103529 48.848796 -16.898568 49.962690 9.814001 -8.878171 -4.298589 -5.354993 -51.601512 27.875920 -20.753352 -27.274363 10.836085 -31.833306 -32.925057 24.934640 1.481130 -0.940816 -6.004975 -3.096071 2.339226 -4.621361 -10.789483 -1.109569 4.454845 1.408709 0.069740 0.058221 0.009608 -0.626203 -6.967633 0.598726 0.476286 -2.073620 -1.082146 -0.670169 3.493386 0.013921 0.069553 -0.017603 0.000774 
9.852730 7.029718 83.118767 -5.507778 -1.345149 -104.122266 -0.525124 -2.759308 1.698482 -0.221387 -1.224989 0.728406 -0.221387 -1.224988 0.728406 -0.164574 -0.919007 0.545840 1.354788 -20.111287 -6.103060 0.614879 -1.260937 -10.708631 9.516474 2.304976 -5.967815 65.376399 43.546677 31.762169 44.524781 40.178922 49.693670 -16.711378 49.819379 9.736169 -8.838025 -4.109875 -5.478806 -51.579765 28.569546 -20.736007 -27.806747 11.561529 -32.519774 -32.560936 26.010223 0.555156 -0.921018 -5.962120 -3.113531 2.309618 -4.557832 -10.681041 -1.097877 4.399849 1.444696 0.044643 0.053688 0.009428 -0.604893 -6.952262 0.689760 0.453279 -2.017301 -1.023292 -0.695330 3.474397 -0.005348 0.075911 -0.015277 0.001101 
9.864418 7.012048 83.120537 -5.431639 -1.348904 -104.281737 -0.525125 -2.769722 1.724143 -0.220164 -1.228744 0.743361 -0.220164 -1.228745 0.743359 -0.163623 -0.921828 0.557056 1.334649 -20.043977 -6.148953 0.559594 -1.140007 -10.800541 9.494561 2.410872 -5.937812 65.066014 42.925492 31.497192 44.968989 38.989134 50.409228 -16.698937 49.688356 9.530834 -8.795734 -3.941545 -5.613805 -51.569929 29.275960 -20.761883 -28.442363 12.527750 -33.328594 -31.975264 27.119922 -0.457691 -0.886927 -5.943738 -3.087252 2.263098 -4.424734 -10.636858 -1.059169 4.320733 1.531932 0.008218 0.045050 0.007675 -0.583181 -6.942252 0.798625 0.436321 -1.947102 -0.957076 -0.719226 3.459894 -0.016972 0.075826 -0.011955 0.000926 
9.883687 6.989435 83.121292 -5.335302 -1.350610 -104.473679 -0.525181 -2.761469 1.759282 -0.218935 -1.224850 0.763818 -0.218935 -1.224851 0.763821 -0.162664 -0.918913 0.572404 1.312504 -19.980687 -6.165038 0.509849 -1.025250 -10.838684 9.483578 2.515333 -5.881354 64.673545 42.372100 31.160573 45.227952 37.551332 50.830456 -16.756472 49.572710 9.302922 -8.762060 -3.750659 -5.729176 -51.591622 29.885848 -20.816726 -29.003548 13.749965 -34.236607 -31.366568 28.364247 -1.611230 -0.842552 -5.928226 -3.009977 2.198231 -4.245756 -10.640489 -0.997324 4.223467 1.653660 -0.032244 0.034016 0.005432 -0.564429 -6.927869 0.933318 0.426894 -1.864317 -0.901210 -0.740115 3.448912 -0.011615 0.069633 -0.008420 0.000671 
